<svg width="100" height="100" viewBox="0 0 100 100" fill="none" xmlns="http://www.w3.org/2000/svg">
<rect x="0.5" y="0.5" width="99" height="99" stroke="black"/>
<path d="M11.1888 33.9349L17.2494 41.1717L25.7343 30.9744" stroke="#333333" stroke-width="5" stroke-linecap="round"/>
<path d="M11.1888 57.6191L17.2494 64.856L25.7343 54.6586" stroke="#333333" stroke-width="5" stroke-linecap="round"/>
<path d="M11.1888 81.3033L17.2494 88.5402L25.7343 78.3428" stroke="#333333" stroke-width="5" stroke-linecap="round"/>
<rect x="34.8252" y="32.9481" width="50.9091" height="6.57895" fill="#333333"/>
<rect x="34.8252" y="56.6323" width="50.9091" height="6.57895" fill="#333333"/>
<rect x="34.8252" y="80.3165" width="50.9091" height="6.57895" fill="#333333"/>
<path d="M30.7574 10.5576V8.74124H39.4439V10.5576H36.1919V19.3467H34.0093V10.5576H30.7574ZM43.1792 19.5078C40.7769 19.5005 39.2754 17.8526 39.2828 15.3916C39.2754 12.938 40.7769 11.2901 43.1792 11.2901C45.5889 11.2901 47.083 12.938 47.0904 15.3916C47.083 17.8526 45.5889 19.5005 43.1792 19.5078ZM41.48 15.3916C41.48 16.7832 42.0586 17.816 43.1939 17.8233C44.2998 17.816 44.8858 16.7832 44.8785 15.3916C44.8858 13.9927 44.2998 12.9453 43.1939 12.9453C42.0586 12.9453 41.48 13.9927 41.48 15.3916ZM55.689 19.3467H51.9537V8.74124H55.733C58.9263 8.74124 60.8819 10.7261 60.8746 14.0293C60.8819 17.3472 58.9263 19.3467 55.689 19.3467ZM54.1509 17.4571H55.6011C57.6226 17.4571 58.6773 16.4097 58.6773 14.0293C58.6773 11.6709 57.6226 10.6309 55.6158 10.6309H54.1509V17.4571ZM66.0015 19.5078C63.5992 19.5005 62.0977 17.8526 62.105 15.3916C62.0977 12.938 63.5992 11.2901 66.0015 11.2901C68.4112 11.2901 69.9053 12.938 69.9126 15.3916C69.9053 17.8526 68.4112 19.5005 66.0015 19.5078ZM64.3023 15.3916C64.3023 16.7832 64.8809 17.816 66.0162 17.8233C67.1221 17.816 67.708 16.7832 67.7007 15.3916C67.708 13.9927 67.1221 12.9453 66.0162 12.9453C64.8809 12.9453 64.3023 13.9927 64.3023 15.3916Z" fill="black"/>
</svg>
